<?xml version="1.0" standalone="no"?>
<!DOCTYPE svg PUBLIC "-//W3C//DTD SVG 20010904//EN"
 "http://www.w3.org/TR/2001/REC-SVG-20010904/DTD/svg10.dtd">
<svg version="1.0" xmlns="http://www.w3.org/2000/svg"
 width="555.000000pt" height="555.000000pt" viewBox="0 0 555.000000 555.000000"
 preserveAspectRatio="xMidYMid meet">
<metadata>
Created by potrace 1.11, written by Peter Selinger 2001-2013
</metadata>
<g transform="translate(0.000000,555.000000) scale(0.100000,-0.100000)"
fill="#000000" stroke="none">
<path d="M2998 5545 c-2 -1 -39 -5 -83 -9 -87 -7 -240 -30 -313 -47 -26 -6
-58 -13 -72 -15 -43 -9 -232 -65 -300 -90 -87 -33 -281 -117 -277 -121 2 -1
37 4 78 11 275 53 636 28 871 -60 24 -9 52 -19 63 -23 11 -4 61 -27 110 -50
538 -254 927 -814 1039 -1496 29 -176 34 -238 37 -417 1 -71 4 -129 8 -129 3
-1 291 -2 639 -3 l632 -1 1 25 c7 136 -8 341 -36 505 -8 44 -16 91 -19 105
-31 185 -141 476 -257 684 -50 91 -167 269 -188 286 -3 3 -19 23 -36 45 -44
59 -239 253 -320 317 -320 255 -701 414 -1120 469 -79 10 -448 22 -457 14z"/>
<path d="M2088 5055 c-2 -2 -37 -5 -78 -9 -260 -20 -524 -117 -765 -279 -204
-137 -493 -475 -683 -799 -194 -327 -359 -778 -406 -1103 -4 -23 -8 -51 -11
-64 -2 -13 -7 -49 -11 -80 -3 -31 -9 -65 -11 -76 -10 -36 -12 -468 -3 -530 5
-33 11 -82 15 -110 41 -327 191 -728 380 -1016 172 -262 483 -449 825 -494 68
-9 249 -9 310 0 222 32 419 103 610 218 81 49 172 110 196 132 6 5 28 24 50
40 90 71 229 209 326 325 228 272 421 624 536 980 51 158 75 250 67 259 -4 3
-634 6 -1400 6 -767 0 -1391 -2 -1387 -6 4 -3 108 -34 232 -69 124 -34 243
-68 265 -75 22 -6 183 -52 357 -101 175 -49 318 -93 318 -99 0 -26 -126 -191
-215 -281 -185 -188 -379 -283 -585 -288 -348 -10 -623 268 -717 724 -18 87
-26 406 -12 490 5 30 11 71 14 90 49 309 217 654 424 867 135 138 302 241 453
277 82 20 216 23 289 6 306 -71 533 -387 583 -810 l11 -95 720 0 c396 -1 727
1 736 3 29 7 14 339 -27 572 -26 147 -87 362 -133 465 -109 245 -204 393 -348
540 -145 150 -269 232 -478 318 -60 25 -169 50 -265 63 -49 6 -178 12 -182 9z"/>
<path d="M4059 2438 c-5 -10 -8 -18 -5 -18 3 0 1 -12 -4 -27 -5 -16 -23 -75
-40 -133 -103 -339 -278 -682 -498 -975 -446 -595 -1040 -961 -1672 -1031
-129 -14 -366 -4 -491 21 -81 17 -85 15 -34 -12 143 -76 398 -173 520 -197 17
-3 75 -15 129 -26 144 -29 227 -35 441 -34 195 0 329 12 490 44 28 6 59 12 70
14 233 45 592 188 850 339 126 73 384 256 435 307 8 8 33 30 55 49 94 79 273
262 355 361 25 30 51 62 57 70 199 241 420 630 522 920 13 36 27 74 32 85 12
30 69 231 69 247 0 11 -106 13 -636 14 -600 0 -636 -1 -645 -18z"/>
</g>
</svg>
